<svg version="1.1" id="Layer_1" xmlns="http://www.w3.org/2000/svg" xmlns:xlink="http://www.w3.org/1999/xlink" x="0px" y="0px"
	 width="100%" viewBox="0 0 303 200" enable-background="new 0 0 303 200" xml:space="preserve">
<path fill="#FDFDFD" opacity="1.000000" stroke="none" 
	d="
M219.000000,201.000000 
	C147.333344,201.000000 76.166634,200.968536 5.000198,201.096390 
	C1.575705,201.102539 0.896241,200.424637 0.903286,196.999832 
	C1.034935,133.000107 1.034931,68.999977 0.903297,5.000248 
	C0.896253,1.575607 1.575850,0.900285 5.000065,0.904410 
	C103.333237,1.022874 201.666626,1.022868 299.999786,0.904429 
	C303.423706,0.900306 304.103760,1.575181 304.096710,5.000113 
	C303.965057,68.999840 303.965088,132.999969 304.096710,196.999695 
	C304.103729,200.424194 303.427826,201.123550 299.999451,201.100403 
	C273.167297,200.919098 246.333374,201.000000 219.000000,201.000000 
z"/>
<path fill="#0B0B0B" opacity="1.000000" stroke="none" 
	d="
M42.966236,116.996124 
	C42.982101,91.192543 43.007225,65.888031 43.005821,40.583523 
	C43.005466,34.171688 44.911434,28.578671 49.610600,23.954590 
	C50.892014,25.466362 50.373730,27.027338 50.375118,28.453524 
	C50.405106,59.249634 50.385494,90.045784 50.391853,120.841927 
	C50.394367,133.011353 47.827404,144.617493 42.708000,155.639114 
	C41.997585,157.168549 41.717224,159.159882 39.181026,160.175964 
	C38.985470,145.583633 44.670643,131.822632 42.966236,116.996124 
z"/>
<path fill="#0A0A0A" opacity="1.000000" stroke="none" 
	d="
M65.092018,63.000023 
	C65.718292,95.608818 62.629318,127.840866 68.826370,159.842407 
	C63.343967,152.604660 60.886738,144.453049 59.112225,136.060486 
	C58.181293,131.657654 57.767963,127.181633 57.768997,122.667686 
	C57.776249,91.024529 57.761768,59.381367 57.765491,27.738207 
	C57.765621,26.631943 57.883915,25.525690 58.000996,23.476948 
	C63.026833,28.351486 64.937263,33.589531 65.043434,39.517910 
	C65.180595,47.176449 65.086525,54.839123 65.092018,63.000023 
z"/>
<path fill="#181818" opacity="1.000000" stroke="none" 
	d="
M80.542542,108.122818 
	C81.614586,116.369240 84.744804,123.977448 82.847801,132.943741 
	C76.973969,122.901749 73.712151,112.736977 72.908180,101.990257 
	C71.319420,80.753128 72.587997,59.466179 72.163322,37.481686 
	C76.439590,40.242584 77.973930,44.009380 78.977615,47.894028 
	C79.673973,50.589188 79.747772,53.485931 79.805656,56.298660 
	C80.158180,73.427711 79.170753,90.573280 80.542542,108.122818 
z"/>
<path fill="#161616" opacity="1.000000" stroke="none" 
	d="
M35.886475,88.983200 
	C36.141529,104.727715 33.085247,119.161560 25.264084,133.135239 
	C24.215740,128.893204 23.953983,125.083725 24.948246,121.703239 
	C29.022013,107.852402 28.169554,93.681946 28.311615,79.567131 
	C28.395397,71.242569 28.311781,62.916451 28.331329,54.591095 
	C28.346308,48.213287 30.134861,42.530037 35.887226,36.835896 
	C35.887226,54.866135 35.887226,71.676338 35.886475,88.983200 
z"/>
<path fill="#FBFBFB" opacity="1.000000" stroke="none" 
	d="
M198.917969,72.277962 
	C199.531509,71.942780 199.804581,71.949722 200.282562,71.952103 
	C201.224518,72.323006 201.997070,72.548126 203.248184,72.522125 
	C205.213318,72.659782 206.488800,73.334839 207.583908,74.424049 
	C213.792542,80.599220 212.199310,94.585304 204.280762,99.431381 
	C198.004028,99.377823 197.368469,99.014755 197.584335,93.331573 
	C197.846512,86.428848 196.297623,79.426147 198.917969,72.277962 
z"/>
<path fill="#111111" opacity="1.000000" stroke="none" 
	d="
M148.128021,89.685730 
	C149.104980,87.989243 148.797256,86.043259 147.659225,83.941383 
	C145.615463,80.166702 143.773468,76.282768 141.547852,71.848099 
	C149.143936,72.116669 147.499115,79.745872 151.495209,82.337196 
	C152.747025,80.901726 154.177719,79.261131 155.604523,77.616669 
	C152.953857,81.230850 152.315781,85.180389 153.875824,88.348915 
	C155.701279,92.056534 157.533752,95.760696 159.372177,99.484604 
	C156.260529,101.023842 155.311172,99.073944 153.969650,96.970474 
	C152.292358,94.340538 152.576324,90.223495 148.128021,89.685730 
z"/>
<path fill="#363636" opacity="1.000000" stroke="none" 
	d="
M106.467545,72.046402 
	C108.661850,72.067917 110.873726,70.874115 110.736710,74.512955 
	C110.455971,81.968948 110.667648,89.442863 110.629387,96.909164 
	C110.622330,98.286255 111.147133,99.995705 108.710220,100.124489 
	C106.002708,100.267570 106.359230,98.465080 106.356682,96.828369 
	C106.347916,91.187035 106.385223,85.545410 106.338257,79.904449 
	C106.316612,77.305374 106.140297,74.707603 106.467545,72.046402 
z"/>
<path fill="#363636" opacity="1.000000" stroke="none" 
	d="
M165.352722,83.047150 
	C165.343719,79.908127 165.273514,77.257378 165.358566,74.611618 
	C165.388702,73.674301 163.331161,71.845184 166.354904,71.924789 
	C168.131393,71.971542 169.847275,71.350800 169.739197,74.464493 
	C169.475159,82.071213 169.631195,89.693146 169.657654,97.308815 
	C169.663391,98.964020 169.534256,100.226700 167.317062,100.131172 
	C165.337280,100.045883 165.349213,98.831795 165.351852,97.444466 
	C165.360641,92.808792 165.353653,88.173080 165.352722,83.047150 
z"/>
<path fill="#0E0E0E" opacity="1.000000" stroke="none" 
	d="
M89.466324,82.170944 
	C89.850769,79.392944 90.989891,76.915565 89.998268,74.184555 
	C89.675499,73.295624 89.440231,72.116333 91.007774,72.028328 
	C92.131378,71.965256 93.453613,71.698822 93.856941,73.263237 
	C96.009148,81.611153 98.124863,89.968498 100.287971,98.313560 
	C100.537178,99.274986 100.489426,99.888054 99.343498,99.984459 
	C97.970055,100.099998 96.651520,100.172348 96.198174,98.405060 
	C95.539780,95.838417 94.833755,93.284004 93.947464,90.390747 
	C91.897026,87.955414 92.324821,84.951782 90.544342,82.638046 
	C90.057777,82.512085 89.863197,82.455078 89.466324,82.170944 
z"/>
<path fill="#0E0E0E" opacity="1.000000" stroke="none" 
	d="
M259.051331,72.992485 
	C257.553864,78.205139 259.508423,81.624657 264.057953,84.244270 
	C267.231171,86.071434 270.333710,88.328438 269.991577,92.682884 
	C269.733490,95.967560 268.788391,98.877953 263.944000,99.076637 
	C265.988007,96.979530 266.850006,94.976562 266.307831,92.513618 
	C265.761139,90.030220 264.090302,88.479027 262.157257,87.160156 
	C259.966492,85.665466 257.297211,84.530296 256.300995,81.955833 
	C254.985657,78.556763 254.657852,75.085815 259.051331,72.992485 
z"/>
<path fill="#131313" opacity="1.000000" stroke="none" 
	d="
M128.947418,81.132278 
	C128.643677,78.039658 127.988007,75.497581 126.029106,73.428978 
	C128.771912,72.066727 130.190521,73.652390 131.340103,75.589272 
	C133.339676,78.958282 134.337280,83.297417 131.679001,85.856239 
	C127.487587,89.890816 129.611771,92.873138 131.579803,96.386780 
	C132.138626,97.384453 132.582672,98.446388 133.107590,99.537560 
	C129.487869,99.918999 129.487869,99.918999 123.840538,89.416260 
	C128.070374,88.440018 128.943375,85.263123 128.947418,81.132278 
z"/>
<path fill="#131313" opacity="1.000000" stroke="none" 
	d="
M204.728058,99.123718 
	C212.296539,92.021942 211.727356,78.501862 203.522247,72.561172 
	C205.808289,71.696045 208.049362,72.542038 209.998001,74.276825 
	C217.196014,80.684891 214.584564,96.123192 205.334656,99.781342 
	C204.813904,99.615601 204.647995,99.476028 204.728058,99.123718 
z"/>
<path fill="#111111" opacity="1.000000" stroke="none" 
	d="
M139.848175,82.042397 
	C139.848068,87.361259 139.851212,92.188751 139.845749,97.016243 
	C139.844070,98.494781 140.163696,100.064651 137.751617,100.059807 
	C135.207733,100.054703 135.835419,98.292778 135.827927,96.949059 
	C135.787201,89.624809 135.794235,82.300179 135.820389,74.975807 
	C135.825363,73.585197 135.308960,71.883354 137.827789,71.940117 
	C140.266998,71.995094 139.819290,73.632195 139.839996,75.058998 
	C139.871414,77.222588 139.848145,79.386978 139.848175,82.042397 
z"/>
<path fill="#131313" opacity="1.000000" stroke="none" 
	d="
M118.147919,79.111977 
	C119.059921,76.490311 116.084908,72.251167 120.049545,72.250824 
	C124.242348,72.250465 121.944206,76.575935 122.076950,78.865242 
	C122.427193,84.905563 122.211548,90.979698 122.183540,97.040199 
	C122.177139,98.426315 122.683922,100.109276 120.185104,100.063835 
	C117.770325,100.019920 118.159676,98.418587 118.155685,96.982330 
	C118.139603,91.187477 118.148338,85.392563 118.147919,79.111977 
z"/>
<path fill="#131313" opacity="1.000000" stroke="none" 
	d="
M181.224731,93.281998 
	C181.761002,95.385948 182.273239,97.055504 182.899231,99.095802 
	C178.823639,98.688690 177.678482,95.848000 177.501526,92.985565 
	C177.113068,86.702415 177.252792,80.387283 177.141037,74.085838 
	C177.115799,72.663864 177.624985,72.029549 179.130463,71.941002 
	C181.111389,71.824478 181.214264,72.944809 181.207275,74.420021 
	C181.178146,80.562424 181.198517,86.705063 181.224731,93.281998 
z"/>
<path fill="#111111" opacity="1.000000" stroke="none" 
	d="
M235.162567,99.258316 
	C228.459930,98.266571 224.395706,94.246147 223.197327,87.772171 
	C222.205383,82.413368 224.519455,78.099312 228.764496,74.811508 
	C229.530411,74.218300 230.320770,73.487328 231.876862,74.328506 
	C229.050415,78.040260 226.439041,81.890099 227.018097,86.894897 
	C227.590240,91.839973 229.876175,95.595955 234.608704,98.137352 
	C235.055420,98.496284 235.184235,98.707619 235.162567,99.258316 
z"/>
<path fill="#131313" opacity="1.000000" stroke="none" 
	d="
M244.932434,74.166504 
	C251.171295,76.640434 253.699799,80.844124 253.191895,87.197701 
	C252.766464,92.519615 249.195663,96.764404 243.719971,98.133430 
	C244.665054,95.227242 247.862610,93.515488 248.601990,90.095825 
	C249.782013,84.638062 249.306503,79.693291 244.830994,75.330215 
	C244.639755,74.741089 244.595352,74.486832 244.932434,74.166504 
z"/>
<path fill="#000000" opacity="1.000000" stroke="none" 
	d="
M204.543625,98.901245 
	C204.974030,98.910980 204.926834,99.333412 204.953339,99.544289 
	C195.578003,100.481522 195.577896,100.481522 195.578064,91.096222 
	C195.578156,85.826988 195.626877,80.557083 195.554504,75.288849 
	C195.527023,73.289322 195.554535,71.569748 198.781555,71.966042 
	C199.310257,79.509644 199.630737,87.098022 199.305389,94.658600 
	C199.131149,98.707222 200.639038,99.602386 204.543625,98.901245 
z"/>
<path fill="#0E0E0E" opacity="1.000000" stroke="none" 
	d="
M188.626831,156.741943 
	C188.825836,159.462692 188.879486,161.939529 188.852661,164.718018 
	C188.675125,165.182449 188.578079,165.345200 188.245087,165.666458 
	C185.256561,165.650818 182.254410,166.929474 180.245102,163.344742 
	C179.762497,162.483719 176.435760,163.216873 174.259766,163.216873 
	C175.542633,164.703629 177.272095,163.424454 178.695633,164.417816 
	C176.490250,166.643814 174.254288,166.809372 172.034348,164.658813 
	C170.620148,163.288818 170.739105,161.665665 172.130905,160.293228 
	C174.290451,158.163727 176.627563,158.308640 178.595917,160.414871 
	C179.680939,161.575912 180.155762,162.541306 181.224670,160.477646 
	C181.753403,159.456863 182.955948,158.562973 184.107071,159.034531 
	C187.429825,160.395676 186.531769,157.435944 187.643494,156.164093 
	C188.169876,156.283020 188.325699,156.390518 188.626831,156.741943 
z"/>
<path fill="#000000" opacity="1.000000" stroke="none" 
	d="
M220.421967,77.053879 
	C220.422012,83.879799 220.460190,90.210938 220.393173,96.540970 
	C220.377884,97.985977 221.227814,100.128304 218.328171,99.995934 
	C215.787582,99.879959 216.626526,97.971451 216.612579,96.696182 
	C216.539734,90.033051 216.447113,83.364174 216.675827,76.708107 
	C216.729004,75.160583 214.945084,72.187988 218.429092,72.086479 
	C222.029419,71.981583 219.740799,75.050797 220.421967,77.053879 
z"/>
<path fill="#313131" opacity="1.000000" stroke="none" 
	d="
M177.129272,146.749374 
	C174.812790,146.879944 176.702728,150.169708 174.694855,149.904694 
	C172.641953,149.633743 173.972092,147.748459 173.556259,146.658676 
	C173.245636,145.844604 172.950409,144.969147 171.943558,145.219238 
	C171.447922,145.342316 170.945587,146.021713 170.728806,146.562592 
	C170.279526,147.683472 171.253143,149.288406 169.572357,150.019974 
	C166.924515,149.368439 169.939194,145.072098 166.770187,145.289062 
	C164.305923,145.457764 166.490524,149.048981 164.123962,150.163437 
	C162.558853,148.112320 162.632034,145.481705 163.597321,143.809631 
	C164.307922,142.578751 167.052505,142.659088 168.893555,143.161255 
	C171.439667,143.855743 175.426727,141.114456 176.613190,146.062561 
	C177.086426,146.167694 177.172150,146.333893 177.129272,146.749374 
z"/>
<path fill="#111111" opacity="1.000000" stroke="none" 
	d="
M198.454208,160.364960 
	C198.436096,168.913574 196.489273,170.820160 191.045471,168.049713 
	C190.825348,167.937698 190.728821,167.582809 190.442245,167.133301 
	C192.187531,167.022659 193.802307,166.920273 195.417099,166.817902 
	C193.071625,166.058884 190.517517,165.570786 190.198975,162.640839 
	C190.007553,160.880188 191.213196,159.177414 192.948166,159.129120 
	C194.727417,159.079575 196.835510,158.251328 198.454208,160.364960 
z"/>
<path fill="#0A0A0A" opacity="1.000000" stroke="none" 
	d="
M120.448105,167.167023 
	C117.945137,169.768311 115.635147,169.603882 113.116982,167.667068 
	C114.419991,166.321121 116.036133,167.480148 117.267761,166.777588 
	C117.367722,166.692474 117.466812,166.603149 117.565903,166.513824 
	C117.294945,166.355377 117.025810,166.063431 116.752731,166.059677 
	C114.643066,166.030716 113.253113,165.064896 112.855484,162.974487 
	C112.588295,161.569855 113.076004,160.390518 114.331673,159.548080 
	C116.296661,158.229767 118.384605,159.533554 120.421234,159.261780 
	C121.307877,159.143463 120.999031,160.605087 120.986610,161.344269 
	C120.956017,163.164444 120.781120,164.982193 120.448105,167.167023 
z"/>
<path fill="#0A0A0A" opacity="1.000000" stroke="none" 
	d="
M131.775436,146.249298 
	C132.844025,140.927887 137.859756,142.578186 139.125336,143.454544 
	C141.208481,144.897049 140.590622,148.701401 139.364761,151.035126 
	C137.708878,154.187485 134.897797,153.498856 131.559830,151.423065 
	C133.724228,151.121414 135.171616,150.919693 137.249405,150.630112 
	C134.981766,149.852890 132.786102,149.903381 132.004486,147.368851 
	C131.850128,146.834290 131.700775,146.667145 131.775436,146.249298 
z"/>
<path fill="#282828" opacity="1.000000" stroke="none" 
	d="
M159.935425,156.118622 
	C161.112946,157.179657 160.192261,159.411530 162.820877,159.009750 
	C165.267456,158.635788 165.932785,160.571320 165.855621,162.558487 
	C165.810974,163.708130 166.772324,165.635422 164.837234,165.861954 
	C162.981125,166.079224 163.830124,164.217224 163.626526,163.235199 
	C163.423737,162.257080 163.415573,161.098480 162.029236,161.229263 
	C161.041061,161.322479 160.909927,162.247498 160.788681,163.095688 
	C160.639236,164.141220 161.279236,165.531204 158.991211,166.168060 
	C158.725342,162.658188 157.670914,159.340256 159.935425,156.118622 
z"/>
<path fill="#282828" opacity="1.000000" stroke="none" 
	d="
M122.618240,161.840790 
	C122.618454,159.659943 122.618454,157.899445 122.618454,155.357758 
	C125.014000,156.847488 125.384834,159.090271 128.071487,159.345810 
	C130.705124,159.596298 129.931335,163.055634 129.691589,165.320297 
	C129.665115,165.570419 128.913071,165.967789 128.577820,165.899994 
	C128.222198,165.828079 127.812706,165.329880 127.688156,164.935318 
	C127.282448,163.650192 128.332870,161.285645 126.237427,161.321671 
	C123.839653,161.362869 125.327011,164.041580 124.540169,165.329681 
	C124.388702,165.577637 124.071281,165.724228 123.690369,166.030014 
	C121.801254,165.235992 122.980003,163.493256 122.618240,161.840790 
z"/>
<path fill="#282828" opacity="1.000000" stroke="none" 
	d="
M79.813324,159.660980 
	C82.196785,159.252960 80.408379,156.630066 82.429398,156.012222 
	C83.053040,158.490387 85.115463,159.197266 87.720871,159.728699 
	C89.448647,161.611588 89.478851,163.349670 88.233772,165.554092 
	C87.032547,166.019287 86.431229,165.831406 86.212616,164.746216 
	C85.958275,163.483643 87.078911,161.178619 84.805794,161.278107 
	C82.937416,161.359863 83.560577,163.564774 83.306190,164.935486 
	C83.231911,165.335709 82.827888,165.674759 82.483055,166.175339 
	C80.199120,164.799072 81.932037,162.354050 80.379860,160.755707 
	C79.860458,160.453903 79.763931,160.227219 79.813324,159.660980 
z"/>
<path fill="#4E4E4E" opacity="1.000000" stroke="none" 
	d="
M236.797760,143.431351 
	C237.926086,143.065979 239.383499,143.237885 239.451721,143.004211 
	C241.245087,136.861481 242.693695,141.813507 244.628815,143.141876 
	C245.400162,143.738754 245.494354,144.353287 244.937531,145.325317 
	C242.404449,144.545074 243.086761,146.373108 242.915039,147.273010 
	C242.720306,148.293610 243.378189,149.929993 241.702515,149.971069 
	C239.630447,150.021896 240.481369,148.150696 240.241821,147.028168 
	C240.112076,146.420181 239.998459,145.808746 239.898422,145.304138 
	C237.382797,145.926193 241.155853,149.903107 237.052856,149.398560 
	C235.470963,147.391464 235.528351,145.616806 236.797760,143.431351 
z"/>
<path fill="#161616" opacity="1.000000" stroke="none" 
	d="
M113.698921,144.586578 
	C113.206665,146.821930 115.380737,149.895950 110.894775,149.945755 
	C107.891136,149.979095 105.275658,149.725967 105.325317,146.350967 
	C105.369476,143.348953 107.847694,142.522293 110.671768,143.089844 
	C111.131424,143.182205 111.624611,143.107697 112.523163,143.129486 
	C113.307549,143.439499 113.560707,143.808334 113.698921,144.586578 
z"/>
<path fill="#282828" opacity="1.000000" stroke="none" 
	d="
M255.860519,146.274750 
	C258.352478,146.212051 257.588959,142.095795 260.992981,142.807358 
	C263.637878,143.360245 264.966614,144.043350 264.858246,146.631058 
	C264.811127,147.756256 265.815399,149.670288 263.828247,149.871719 
	C262.000183,150.057007 262.813446,148.236954 262.631012,147.256058 
	C262.454224,146.305374 262.596497,145.101654 261.161896,145.215240 
	C259.867981,145.317673 259.876129,146.441833 259.773987,147.432846 
	C259.680908,148.335510 260.150299,149.479446 258.804626,149.948898 
	C256.662415,149.709305 258.358398,147.145905 256.382629,146.761169 
	C255.899567,146.801758 255.821350,146.651169 255.860519,146.274750 
z"/>
<path fill="#363636" opacity="1.000000" stroke="none" 
	d="
M227.125671,146.756256 
	C225.296967,146.727905 225.859055,148.142654 225.615738,148.901627 
	C225.384186,149.623886 224.960281,150.054642 224.231934,149.966492 
	C223.464432,149.873611 223.320786,149.238464 223.176636,148.551315 
	C222.934067,147.395035 223.906433,145.361389 222.078995,145.297501 
	C220.005966,145.225021 220.590332,147.358673 220.376175,148.724304 
	C220.309738,149.147949 220.023239,149.537079 219.238373,151.248123 
	C217.865616,147.888504 217.215775,144.505829 218.888474,143.532303 
	C221.270447,142.146011 224.960373,142.044144 226.595947,146.094879 
	C227.081619,146.158646 227.169724,146.329391 227.125671,146.756256 
z"/>
<path fill="#0B0B0B" opacity="1.000000" stroke="none" 
	d="
M139.325714,161.017136 
	C142.225708,159.501221 145.794830,156.719040 148.070511,162.733734 
	C146.078445,162.898697 144.347504,163.042038 142.331711,163.208969 
	C143.741623,164.703781 145.540039,163.389587 146.794312,164.357361 
	C145.661407,166.775543 143.587875,166.272034 141.768723,165.668396 
	C139.692886,164.979568 139.392609,163.148987 139.325714,161.017136 
z"/>
<path fill="#0A0A0A" opacity="1.000000" stroke="none" 
	d="
M226.999832,147.369415 
	C227.042114,146.841629 227.090714,146.670883 227.066437,146.244019 
	C226.911346,144.369751 228.341660,143.020935 229.223755,143.262894 
	C232.394379,144.132614 232.802689,141.498810 234.505875,140.031982 
	C236.117798,143.037216 236.375320,146.069931 235.153442,149.556671 
	C232.217651,149.325287 228.805267,151.396484 226.999832,147.369415 
z"/>
<path fill="#0A0A0A" opacity="1.000000" stroke="none" 
	d="
M256.189453,89.582306 
	C257.500092,89.638855 258.958954,89.247688 258.857513,90.658997 
	C258.627350,93.861717 260.082794,96.618553 261.172729,99.663315 
	C255.617615,98.352783 254.136246,95.398979 256.189453,89.582306 
z"/>
<path fill="#000000" opacity="1.000000" stroke="none" 
	d="
M83.119858,149.365326 
	C80.710480,149.322998 77.164886,152.482544 76.988441,147.172958 
	C76.868225,143.555389 76.314041,139.706100 82.489632,141.222046 
	C83.238983,141.740173 83.410507,142.138031 83.214661,142.915527 
	C82.282410,143.724930 81.304245,143.184753 80.412941,143.719254 
	C79.872368,143.813980 80.526863,144.227295 80.655083,143.936142 
	C81.042931,143.055481 81.993927,143.680969 82.988220,143.783936 
	C83.476906,144.343643 83.591270,144.755737 83.514633,145.501434 
	C83.312057,146.397644 82.054443,146.589966 83.041550,147.722168 
	C83.403740,148.330597 83.426544,148.731934 83.119858,149.365326 
z"/>
<path fill="#111111" opacity="1.000000" stroke="none" 
	d="
M94.311203,161.244278 
	C94.392075,160.845413 94.847824,160.769196 95.152649,160.513214 
	C97.092552,158.884232 99.102547,158.096497 101.364609,159.882462 
	C102.620224,160.873795 103.484406,162.075592 102.573082,163.712921 
	C101.720451,165.244797 100.478127,166.207428 98.564034,166.038422 
	C95.748573,165.789841 94.394928,164.334595 94.311203,161.244278 
z"/>
<path fill="#282828" opacity="1.000000" stroke="none" 
	d="
M159.631363,144.566879 
	C159.819748,143.101212 160.838699,142.576630 161.268723,143.331528 
	C162.304291,145.149521 161.997894,147.165710 160.827087,148.930756 
	C159.820862,150.447678 158.169250,150.330185 156.778748,149.951492 
	C154.870239,149.431686 154.588669,147.671768 154.644058,145.954132 
	C154.677750,144.909393 154.168396,143.613281 155.507324,142.990417 
	C158.280655,143.682175 155.113373,147.754776 158.345078,147.777176 
	C159.818375,147.787399 159.543365,146.089676 159.631363,144.566879 
z"/>
<path fill="#1C1C1C" opacity="1.000000" stroke="none" 
	d="
M251.579514,165.775192 
	C249.936600,164.527756 248.593201,163.416550 249.451080,161.472855 
	C250.080627,160.046478 251.140335,159.056992 252.830307,158.950790 
	C255.287933,158.796326 257.479523,159.687302 257.525391,162.214447 
	C257.589996,165.770645 254.890244,166.314941 251.579514,165.775192 
z"/>
<path fill="#030303" opacity="1.000000" stroke="none" 
	d="
M206.854950,162.984955 
	C205.170975,162.999832 203.892822,162.999832 202.282257,162.999832 
	C203.873413,164.810181 205.792770,163.333435 207.310730,164.483353 
	C205.317749,166.610077 203.249527,166.579941 201.052567,164.863983 
	C199.642899,163.762909 199.551422,162.285736 200.403793,160.921463 
	C201.584991,159.030899 203.565964,158.387863 205.534805,159.215714 
	C206.902069,159.790604 209.114807,160.625427 206.854950,162.984955 
z"/>
<path fill="#030303" opacity="1.000000" stroke="none" 
	d="
M87.778366,146.252472 
	C88.427246,143.911530 89.805916,143.090988 91.840408,142.982513 
	C93.968102,142.869034 95.773369,143.953537 95.834801,145.776352 
	C95.912666,148.086945 93.583199,146.554123 92.394150,146.980347 
	C91.804268,147.191803 91.126396,147.157776 90.384750,147.247299 
	C91.672592,148.813004 93.637383,147.233002 95.044701,148.668610 
	C92.278160,150.826096 90.014008,150.517502 88.017761,147.370636 
	C87.853874,146.828461 87.703918,146.664032 87.778366,146.252472 
z"/>
<path fill="#1C1C1C" opacity="1.000000" stroke="none" 
	d="
M131.611725,146.218262 
	C132.025009,146.165710 132.050583,146.332855 132.037811,146.750717 
	C129.773743,146.071609 130.582535,147.977493 130.345657,148.824768 
	C130.147125,149.534821 129.831329,150.074600 129.067413,149.881302 
	C128.708176,149.790390 128.375504,149.319855 128.170456,148.944946 
	C127.511024,147.739273 129.427078,145.009216 126.593994,145.296692 
	C124.530876,145.506042 125.526840,148.034561 125.065453,149.499008 
	C124.999542,149.708191 124.540489,149.793472 123.903938,150.121109 
	C122.856667,147.707672 121.998825,144.516174 124.124130,143.356842 
	C126.641960,141.983398 129.946045,142.865326 131.611725,146.218262 
z"/>
<path fill="#1C1C1C" opacity="1.000000" stroke="none" 
	d="
M152.603210,144.536865 
	C152.860092,146.222519 152.932541,147.534653 152.930511,148.846695 
	C152.929291,149.630325 152.396652,150.067825 151.675430,149.919754 
	C151.341202,149.851135 151.000076,149.334564 150.848053,148.947968 
	C150.335922,147.645584 151.741959,144.988663 149.029907,145.329437 
	C146.930573,145.593185 148.474106,148.214447 147.567413,149.494659 
	C147.415222,149.709549 147.021759,149.753571 146.255127,150.087906 
	C146.255127,146.661179 146.255127,143.431549 146.255127,140.201935 
	C147.345169,142.973770 150.436539,142.690704 152.603210,144.536865 
z"/>
<path fill="#000000" opacity="1.000000" stroke="none" 
	d="
M241.726547,161.524048 
	C239.881012,158.965668 243.222931,157.950211 242.188797,155.929291 
	C247.883606,163.580872 247.883606,163.580872 246.952515,166.283920 
	C245.120590,164.633026 246.543304,162.353012 245.547821,160.752975 
	C242.387207,161.415466 245.235397,164.734299 243.091766,166.051285 
	C241.051575,165.198242 242.294861,163.273087 241.726547,161.524048 
z"/>
<path fill="#D4D4D4" opacity="1.000000" stroke="none" 
	d="
M90.628738,82.205215 
	C93.869545,83.559074 92.943443,86.763443 93.746475,89.668060 
	C92.035179,90.510452 89.810387,89.322357 88.380867,91.814178 
	C87.715561,92.347038 87.273911,92.507431 86.436707,92.332443 
	C86.544586,90.540184 86.981903,88.912682 87.686157,87.146538 
	C89.385376,85.826920 88.953400,83.625328 90.628738,82.205215 
z"/>
<path fill="#0A0A0A" opacity="1.000000" stroke="none" 
	d="
M177.001495,147.356766 
	C177.046249,146.832458 177.091812,146.666260 177.069046,146.250793 
	C177.866425,141.318802 181.714386,143.777786 184.542847,143.028137 
	C186.591492,144.962906 186.644379,147.028107 185.186478,149.574829 
	C182.232254,149.268188 178.789978,151.425293 177.001495,147.356766 
z"/>
<path fill="#000000" opacity="1.000000" stroke="none" 
	d="
M190.530212,91.149658 
	C190.310699,84.656891 190.310699,78.407776 190.310699,72.158669 
	C190.869629,72.166130 191.428574,72.173599 191.987503,72.181068 
	C191.987503,78.130913 191.987503,84.080765 191.931503,90.493256 
	C191.587448,91.326111 191.208130,91.461456 190.530212,91.149658 
z"/>
<path fill="#545454" opacity="1.000000" stroke="none" 
	d="
M114.109879,144.965179 
	C113.451996,144.507309 113.224525,144.086075 112.970551,143.406738 
	C113.435814,143.107101 114.307198,143.186142 114.364258,143.006516 
	C116.122772,137.470444 117.659775,141.299866 119.634537,143.125244 
	C120.402267,143.725281 120.493576,144.338776 119.928276,145.300934 
	C117.999329,144.773544 118.034172,145.839294 117.910355,146.903168 
	C117.773575,148.078430 118.568542,150.050919 116.531952,149.985580 
	C114.606926,149.923843 115.478378,147.960236 115.193382,146.793900 
	C115.043373,146.180008 114.762222,145.598160 114.109879,144.965179 
z"/>
<path fill="#363636" opacity="1.000000" stroke="none" 
	d="
M87.571106,146.017822 
	C88.056725,146.169891 88.110680,146.334427 88.084229,146.745926 
	C86.038979,146.647354 86.977165,152.274963 83.269402,149.350540 
	C82.725700,149.358551 82.674744,149.104401 82.849030,148.657364 
	C82.996613,147.695465 82.756027,146.901169 82.961563,145.810089 
	C82.745781,145.318542 82.675713,145.084244 82.850174,144.647919 
	C82.519516,144.063339 83.753548,143.542877 82.916412,142.827698 
	C82.747322,142.306274 82.672188,142.060410 82.812454,141.592102 
	C85.017494,140.205185 87.092651,138.997681 86.685707,143.222672 
	C86.597778,144.135513 86.975960,145.093231 87.571106,146.017822 
z"/>
<path fill="#030303" opacity="1.000000" stroke="none" 
	d="
M261.000488,164.084045 
	C260.860443,165.612091 259.927155,166.737015 259.411346,165.477814 
	C258.716064,163.780487 258.619141,161.387680 259.330841,159.758835 
	C259.674377,158.972580 262.524536,158.850052 264.109985,159.138962 
	C266.488800,159.572433 266.068848,161.807632 266.063049,163.575607 
	C266.060120,164.466629 266.405151,165.580994 265.124603,166.017471 
	C262.451233,165.217224 265.700958,161.408432 262.625854,161.116943 
	C261.140747,160.976151 260.989441,162.437317 261.000488,164.084045 
z"/>
<path fill="#1C1C1C" opacity="1.000000" stroke="none" 
	d="
M206.628220,144.224045 
	C206.575150,146.408142 205.633224,145.711563 204.458603,145.252533 
	C203.192963,144.757935 201.514740,144.820541 201.545395,146.624039 
	C201.569382,148.034698 203.123764,148.188904 204.294662,147.824448 
	C205.229568,147.533478 206.364441,146.831955 206.629196,148.183014 
	C206.909546,149.613770 205.438049,149.860550 204.346786,150.012955 
	C202.412567,150.283096 200.796677,149.814087 199.665939,147.996536 
	C198.788269,146.585770 199.138687,145.313095 200.117142,144.396164 
	C201.984299,142.646393 204.136017,142.163132 206.628220,144.224045 
z"/>
<path fill="#0B0B0B" opacity="1.000000" stroke="none" 
	d="
M216.316132,148.323013 
	C213.917374,150.707397 211.685867,150.589554 209.613190,148.652710 
	C208.405533,147.524200 208.377426,145.990921 209.356903,144.644562 
	C210.545349,143.010925 212.420959,142.435638 214.135925,143.111938 
	C216.139923,143.902206 217.852768,145.351440 216.316132,148.323013 
z"/>
<path fill="#181818" opacity="1.000000" stroke="none" 
	d="
M186.788574,143.407059 
	C193.380707,143.155670 195.066803,144.561234 193.962311,148.704895 
	C193.769608,149.427856 193.560699,150.012817 192.772812,149.894409 
	C192.429001,149.842728 192.052856,149.370697 191.869705,149.001175 
	C191.245743,147.742157 192.958481,145.008713 190.146271,145.286392 
	C187.871017,145.511063 189.416916,148.145447 188.640106,149.485718 
	C188.505066,149.718689 188.123444,149.808731 187.463470,149.963699 
	C185.568665,148.020844 185.847580,145.916168 186.788574,143.407059 
z"/>
<path fill="#1C1C1C" opacity="1.000000" stroke="none" 
	d="
M139.021454,160.720612 
	C136.319916,161.416565 139.570648,166.146179 136.359894,165.440155 
	C135.310532,165.209412 134.000412,160.579147 135.624710,157.699554 
	C135.912216,157.189850 135.567490,156.347137 136.750732,155.997345 
	C138.586975,156.621307 137.801224,158.992050 138.944000,160.492676 
	C138.922028,160.847534 138.985245,160.760422 139.021454,160.720612 
z"/>
<path fill="#1C1C1C" opacity="1.000000" stroke="none" 
	d="
M105.127625,159.093079 
	C105.750923,159.281158 106.051750,159.494980 106.144508,159.777191 
	C106.606911,161.184097 105.330696,163.772171 107.742645,163.768875 
	C110.242607,163.765457 108.604721,161.144272 109.210884,159.826523 
	C109.336494,159.553436 109.636208,159.360443 110.117851,158.855896 
	C111.951019,160.851669 111.569969,163.012985 110.474068,164.901505 
	C109.497040,166.585205 107.391373,166.567657 106.042091,165.693329 
	C103.621025,164.124527 103.584343,161.658386 105.127625,159.093079 
z"/>
<path fill="#0E0E0E" opacity="1.000000" stroke="none" 
	d="
M239.772614,159.374054 
	C240.057968,160.034225 240.092377,160.363266 240.076569,160.689865 
	C239.982819,162.627213 240.351334,164.860687 238.046143,165.781219 
	C236.684250,166.325043 235.047089,166.413788 233.961700,165.058594 
	C232.397812,163.105957 232.785370,161.054764 233.525894,158.870453 
	C236.558899,159.658432 233.150864,164.258759 236.960022,163.769592 
	C239.486435,163.445129 236.185806,159.345490 239.772614,159.374054 
z"/>
<path fill="#161616" opacity="1.000000" stroke="none" 
	d="
M219.299377,163.262512 
	C218.100998,166.738907 215.784760,166.215256 213.525787,165.766861 
	C212.712173,164.264603 218.754593,163.621506 213.930679,161.613449 
	C213.153381,161.289856 213.328506,160.015060 214.125595,159.539078 
	C215.861053,158.502747 217.519806,158.487991 218.818451,160.845398 
	C219.379105,161.665054 219.545975,162.214523 219.299377,163.262512 
z"/>
<path fill="#282828" opacity="1.000000" stroke="none" 
	d="
M231.378510,163.564667 
	C231.313766,164.775940 231.491318,165.725037 230.404526,165.936340 
	C229.627655,166.087372 229.205505,165.603714 229.129852,164.849396 
	C229.080719,164.359375 228.998535,163.847702 229.084076,163.373306 
	C229.521942,160.945007 228.154343,156.360779 230.086990,156.501282 
	C232.839645,156.701370 230.789078,160.804291 231.378510,163.564667 
z"/>
<path fill="#282828" opacity="1.000000" stroke="none" 
	d="
M99.346176,148.618073 
	C98.372398,146.683212 97.603745,145.065659 96.807182,143.389374 
	C99.895905,141.952911 98.943298,145.724655 101.275772,145.900345 
	C102.215500,145.726944 101.612473,142.671127 104.520828,143.280411 
	C103.589249,145.350967 102.834991,147.409744 101.757484,149.282578 
	C101.083504,150.454025 100.134262,150.075363 99.346176,148.618073 
z"/>
<path fill="#0E0E0E" opacity="1.000000" stroke="none" 
	d="
M79.702301,159.028702 
	C79.866081,159.618088 79.834747,159.921127 79.911118,160.455582 
	C79.847931,160.804382 79.736420,160.926086 79.630188,161.052231 
	C78.428978,162.478775 80.243149,164.770737 78.308968,165.891266 
	C77.757484,166.210770 77.085701,165.613403 77.088753,164.802567 
	C77.099686,161.902832 75.223518,158.425003 77.714668,156.304306 
	C79.319290,154.938309 78.789192,157.886734 79.702301,159.028702 
z"/>
<path fill="#030303" opacity="1.000000" stroke="none" 
	d="
M255.967590,145.671875 
	C255.977905,146.048889 255.840424,146.500610 255.909103,146.726486 
	C254.702438,150.286545 252.511429,150.872040 249.273438,148.815475 
	C249.050674,148.299850 249.089127,148.067505 249.412445,147.638397 
	C250.375092,147.047012 251.564224,147.188065 251.764771,146.569016 
	C251.959335,145.968414 250.826324,146.101364 250.009705,145.677704 
	C249.500198,145.407410 249.309067,145.270966 249.082123,144.784058 
	C251.729355,141.676468 253.930450,142.786545 255.967590,145.671875 
z"/>
<path fill="#404040" opacity="1.000000" stroke="none" 
	d="
M190.184814,91.283966 
	C190.657074,90.928642 191.003464,90.951279 191.612671,90.964905 
	C191.883133,94.294914 191.809265,97.586540 186.855835,99.413551 
	C189.172882,96.474876 190.223862,94.295593 190.184814,91.283966 
z"/>
<path fill="#131313" opacity="1.000000" stroke="none" 
	d="
M94.091446,160.906647 
	C89.862335,160.527069 93.403847,165.172745 90.499168,165.901138 
	C88.506851,163.991882 88.905342,161.939423 89.836594,159.499969 
	C91.120766,160.118835 93.242516,157.601517 93.860260,160.642792 
	C94.006111,161.004761 94.053650,160.929855 94.091446,160.906647 
z"/>
<path fill="#D4D4D4" opacity="1.000000" stroke="none" 
	d="
M235.141968,149.879822 
	C234.913895,146.943527 234.951859,143.949265 234.933990,140.509537 
	C237.174866,139.788010 236.987198,141.208252 236.899689,142.895447 
	C237.069794,144.794617 237.023575,146.506165 236.913269,148.641724 
	C236.368774,149.317764 235.888382,149.569794 235.141968,149.879822 
z"/>
<path fill="#161616" opacity="1.000000" stroke="none" 
	d="
M268.002747,146.402740 
	C269.892487,145.817352 271.689087,146.570190 271.101227,148.544830 
	C270.345764,151.082764 267.952209,149.858887 266.200897,149.833649 
	C265.744263,147.479782 268.182831,148.594803 268.594208,147.416321 
	C268.630646,147.311996 268.518860,147.126419 268.429810,147.015640 
	C268.329407,146.890762 268.176819,146.807861 268.002747,146.402740 
z"/>
<path fill="#1C1C1C" opacity="1.000000" stroke="none" 
	d="
M268.173828,74.673782 
	C269.029022,78.486015 266.283844,76.892654 265.522156,76.501167 
	C264.498810,75.975220 263.961578,74.503441 263.185913,73.395157 
	C265.138214,72.300446 266.671478,72.775269 268.173828,74.673782 
z"/>
<path fill="#404040" opacity="1.000000" stroke="none" 
	d="
M86.061951,92.528366 
	C86.543541,92.074463 86.979805,91.981239 87.748138,91.937965 
	C87.592758,94.123947 87.105324,96.259979 86.409332,99.309944 
	C84.161484,96.393410 86.216034,94.660866 86.061951,92.528366 
z"/>
<path fill="#363636" opacity="1.000000" stroke="none" 
	d="
M244.485413,145.960907 
	C244.700241,145.095749 244.832733,144.551804 244.994949,143.587585 
	C248.550354,144.719147 246.513275,147.424576 246.324005,149.723679 
	C246.317139,149.807068 245.324890,150.031631 245.052368,149.833008 
	C243.765457,148.894974 244.610168,147.477768 244.485413,145.960907 
z"/>
<path fill="#363636" opacity="1.000000" stroke="none" 
	d="
M119.477257,145.932480 
	C119.689484,145.068130 119.825539,144.528564 119.995407,143.571350 
	C123.563133,144.721939 121.469360,147.435013 121.308128,149.733978 
	C121.303108,149.805679 120.303139,150.026413 120.035072,149.823502 
	C118.776100,148.870575 119.606964,147.457245 119.477257,145.932480 
z"/>
<path fill="#030303" opacity="1.000000" stroke="none" 
	d="
M219.491562,163.805771 
	C219.115875,163.128571 219.089844,162.573990 219.009689,161.606522 
	C221.482132,160.514694 223.665619,156.733658 226.377136,160.676758 
	C225.236008,162.074631 224.038757,162.304016 222.410675,162.372986 
	C221.790176,163.561172 220.985901,163.983887 219.491562,163.805771 
z"/>
<path fill="#404040" opacity="1.000000" stroke="none" 
	d="
M235.349457,99.782089 
	C234.949539,99.382050 234.887009,99.166412 234.875519,98.617859 
	C237.431244,99.518227 240.009918,98.217331 242.958649,98.363358 
	C243.375153,98.219307 243.282578,98.244652 243.319885,98.225128 
	C241.313690,101.028488 238.378220,99.965927 235.349457,99.782089 
z"/>
<path fill="#D4D4D4" opacity="1.000000" stroke="none" 
	d="
M186.706055,143.019211 
	C187.021072,145.060837 186.970596,147.084381 186.995682,149.535263 
	C186.583725,149.967392 186.096207,149.972183 185.243332,149.956375 
	C184.915710,147.929245 184.953445,145.922684 184.934738,143.490173 
	C185.365707,143.043167 185.853134,143.022156 186.706055,143.019211 
z"/>
<path fill="#838383" opacity="1.000000" stroke="none" 
	d="
M89.816322,159.216980 
	C90.093826,161.098694 90.077553,163.060883 90.084663,165.442871 
	C89.626869,165.883011 89.145706,165.903336 88.302979,165.920105 
	C87.962982,164.234100 87.984535,162.551651 87.993134,160.447342 
	C88.494308,159.782806 89.008430,159.540131 89.816322,159.216980 
z"/>
<path fill="#E6E6E6" opacity="1.000000" stroke="none" 
	d="
M221.878937,162.511230 
	C222.441650,160.207657 224.052658,161.150528 225.681244,161.055237 
	C226.088104,161.012543 225.996735,161.006927 225.996979,160.961151 
	C226.592316,161.643188 226.777084,162.450668 226.233826,163.719070 
	C225.997147,164.084625 225.997604,163.996964 226.041443,163.996643 
	C224.909576,164.849884 223.675827,165.048660 222.163574,163.869171 
	C221.626587,163.246933 221.543015,162.996521 221.878937,162.511230 
z"/>
<path fill="#030303" opacity="1.000000" stroke="none" 
	d="
M150.789658,163.759750 
	C151.391342,163.810776 151.581360,163.781570 151.708389,163.857605 
	C153.167465,164.731079 154.684372,162.705582 156.078644,163.957382 
	C156.215408,164.080185 156.031097,164.874283 155.776062,165.069122 
	C154.068222,166.373932 152.298981,166.592514 150.290588,164.830536 
	C150.139740,164.279480 150.244232,164.003937 150.789658,163.759750 
z"/>
<path fill="#161616" opacity="1.000000" stroke="none" 
	d="
M271.255920,162.449692 
	C272.767151,163.123947 273.629364,163.982437 272.189484,165.355240 
	C270.947693,166.539200 269.485870,166.032333 268.091919,165.789230 
	C267.977600,165.769318 267.815765,164.933899 267.973999,164.635315 
	C268.532715,163.580994 269.731232,164.142105 270.761017,163.399445 
	C270.968201,162.876678 270.989380,162.705139 271.255920,162.449692 
z"/>
<path fill="#404040" opacity="1.000000" stroke="none" 
	d="
M90.431839,81.929276 
	C90.073364,83.624535 90.798447,85.923286 88.324921,87.027145 
	C88.278557,85.505135 88.604019,84.002380 89.096756,82.221718 
	C89.523537,81.935944 89.783028,81.928070 90.431839,81.929276 
z"/>
<path fill="#111111" opacity="1.000000" stroke="none" 
	d="
M268.039612,146.031830 
	C266.884094,146.186462 265.846802,145.754074 266.140778,144.519135 
	C266.511871,142.960205 267.995667,142.812866 269.387634,143.006927 
	C270.229156,143.124222 271.302460,143.694168 270.839569,144.458847 
	C270.471832,145.066360 269.113586,145.074265 268.076843,145.723572 
	C267.958557,146.098770 268.016754,146.058746 268.039612,146.031830 
z"/>
<path fill="#0E0E0E" opacity="1.000000" stroke="none" 
	d="
M270.635529,158.985138 
	C271.801941,159.354279 273.207031,160.097107 272.094757,160.646851 
	C270.983521,161.196075 268.784424,162.462967 267.946228,161.078094 
	C267.050964,159.598953 268.780762,158.989349 270.635529,158.985138 
z"/>
<path fill="#030303" opacity="1.000000" stroke="none" 
	d="
M150.233093,160.801514 
	C152.392654,158.243408 154.455597,158.279739 156.633286,161.075760 
	C154.830048,162.282257 153.393295,160.267242 151.608673,161.162216 
	C150.939789,161.211731 150.655518,161.208344 150.233093,160.801514 
z"/>
<path fill="#030303" opacity="1.000000" stroke="none" 
	d="
M221.550156,163.731567 
	C222.952118,164.247421 224.094681,164.059525 225.658081,163.954666 
	C227.310150,165.731567 225.661438,165.806152 224.790771,165.928040 
	C223.235107,166.145767 221.548416,166.227707 221.550156,163.731567 
z"/>
<path fill="#030303" opacity="1.000000" stroke="none" 
	d="
M249.315155,148.368561 
	C247.452866,147.457977 247.706467,146.142944 248.778381,144.594208 
	C249.242813,144.549744 249.439316,144.665894 249.912628,144.983597 
	C250.702682,145.786728 250.771683,146.476181 250.388062,147.514633 
	C249.996140,147.944443 249.807114,148.074677 249.315155,148.368561 
z"/>
<path fill="#030303" opacity="1.000000" stroke="none" 
	d="
M150.348602,164.386810 
	C148.461319,163.457565 148.673935,162.132965 149.821564,160.561157 
	C150.292236,160.521667 150.489532,160.645264 150.955444,160.991989 
	C151.188080,161.857590 151.152100,162.500061 151.173355,163.466827 
	C151.041061,163.933594 150.851517,164.076080 150.348602,164.386810 
z"/>
<path fill="#030303" opacity="1.000000" stroke="none" 
	d="
M226.346008,164.404083 
	C225.971603,163.294739 225.946060,162.504868 225.958862,161.315186 
	C226.720886,159.967667 227.322876,160.387955 227.703903,161.173050 
	C228.401947,162.611313 228.245316,163.885712 226.346008,164.404083 
z"/>
<path fill="#FBFBFB" opacity="1.000000" stroke="none" 
	d="
M245.051392,73.972244 
	C245.283417,74.301979 245.252930,74.503540 244.953293,74.850227 
	C243.655090,74.837204 242.644684,74.218376 243.211044,73.242920 
	C243.879257,72.092056 244.181458,73.768555 245.051392,73.972244 
z"/>
<path fill="#838383" opacity="1.000000" stroke="none" 
	d="
M202.726639,72.158371 
	C203.166504,72.246185 203.268188,72.497398 203.221313,72.624542 
	C202.402405,72.719391 201.630371,72.687103 200.672882,72.302673 
	C201.087204,71.990532 201.686996,72.030540 202.726639,72.158371 
z"/>
<path fill="#111111" opacity="1.000000" stroke="none" 
	d="
M188.265976,165.858948 
	C188.093872,165.577682 188.237656,165.371628 188.606354,165.113235 
	C188.689072,165.310776 188.605942,165.601868 188.265976,165.858948 
z"/>
<path fill="#161616" opacity="1.000000" stroke="none" 
	d="
M271.097687,162.887466 
	C270.705597,162.864120 270.464142,162.680023 270.222717,162.495926 
	C270.503204,162.387955 270.783722,162.279968 271.282715,162.268890 
	C271.501251,162.365799 271.248352,162.726700 271.097687,162.887466 
z"/>
<path fill="#111111" opacity="1.000000" stroke="none" 
	d="
M147.846191,89.946503 
	C147.855545,89.900146 147.859985,90.125626 147.859985,90.125626 
	C147.859985,90.125626 147.960403,89.931595 147.861176,89.991127 
	C147.761963,90.050659 147.836823,89.992859 147.846191,89.946503 
z"/>
<path fill="#111111" opacity="1.000000" stroke="none" 
	d="
M188.831696,156.733536 
	C188.528763,156.888611 188.332367,156.732285 188.098541,156.346222 
	C188.306442,156.277420 188.598831,156.379303 188.831696,156.733536 
z"/>
<path fill="#EFEFEF" opacity="1.000000" stroke="none" 
	d="
M182.718689,162.807251 
	C183.276642,160.543716 184.684555,160.685577 186.138794,161.417389 
	C186.701553,161.700562 187.129623,162.456848 186.582703,163.073593 
	C185.419495,164.385300 184.134399,164.586212 182.718689,162.807251 
z"/>
<path fill="#FBFBFB" opacity="1.000000" stroke="none" 
	d="
M192.483673,162.087128 
	C193.808426,160.800552 194.994888,160.565216 195.943497,161.811111 
	C196.193542,162.139511 196.045609,163.217834 195.716263,163.463409 
	C194.266739,164.544266 193.094009,164.042984 192.483673,162.087128 
z"/>
<path fill="#E6E6E6" opacity="1.000000" stroke="none" 
	d="
M117.652954,163.915085 
	C115.823349,164.033600 114.521667,163.781906 115.028366,161.904236 
	C115.358948,160.679153 116.578323,160.835068 117.454941,161.076645 
	C119.211754,161.560776 119.368835,162.575684 117.652954,163.915085 
z"/>
<path fill="#E6E6E6" opacity="1.000000" stroke="none" 
	d="
M137.349518,147.552582 
	C135.777725,148.035751 134.361969,148.494003 133.934479,146.667755 
	C133.733810,145.810410 134.183685,145.082535 135.180908,145.033005 
	C136.721771,144.956451 138.269501,144.954346 137.349518,147.552582 
z"/>
<path fill="#EFEFEF" opacity="1.000000" stroke="none" 
	d="
M108.974289,145.048248 
	C110.715431,145.100952 111.883430,145.467133 111.205200,147.026917 
	C110.647705,148.309052 109.323875,148.302704 108.277023,147.682129 
	C106.771622,146.789749 107.419212,145.861053 108.974289,145.048248 
z"/>
<path fill="#E6E6E6" opacity="1.000000" stroke="none" 
	d="
M231.759674,147.925522 
	C229.973907,147.989380 228.479813,147.944946 229.069901,145.933807 
	C229.416824,144.751389 230.650345,144.818878 231.573761,145.070038 
	C233.383301,145.562210 233.539337,146.579086 231.759674,147.925522 
z"/>
<path fill="#FDFDFD" opacity="1.000000" stroke="none" 
	d="
M82.599892,145.734711 
	C84.918419,145.923004 83.967407,147.270905 83.410759,148.417068 
	C82.667130,148.337280 82.392792,148.145264 82.088318,148.042755 
	C81.093971,147.707886 79.235161,148.672668 79.184143,147.167496 
	C79.112511,145.054550 81.203575,146.413513 82.599892,145.734711 
z"/>
<path fill="#FDFDFD" opacity="1.000000" stroke="none" 
	d="
M82.624809,142.734711 
	C84.523354,142.521423 84.012413,143.533310 83.404266,144.431580 
	C81.779938,144.211090 80.605042,143.934464 79.362900,143.641998 
	C80.185165,142.455048 81.363129,143.255280 82.624809,142.734711 
z"/>
<path fill="#EFEFEF" opacity="1.000000" stroke="none" 
	d="
M100.005569,161.381332 
	C101.159805,163.580780 99.928955,163.867813 98.499985,163.976410 
	C97.532364,164.049957 96.712440,163.465393 96.738777,162.662064 
	C96.801308,160.754807 98.297386,160.966934 100.005569,161.381332 
z"/>
<path fill="#EFEFEF" opacity="1.000000" stroke="none" 
	d="
M252.975601,161.061127 
	C254.700775,161.113907 255.862534,161.474182 255.188965,163.022644 
	C254.636200,164.293442 253.323334,164.286255 252.284866,163.672119 
	C250.788193,162.787018 251.439514,161.867920 252.975601,161.061127 
z"/>
<path fill="#E6E6E6" opacity="1.000000" stroke="none" 
	d="
M180.117508,145.059937 
	C181.877472,145.044815 183.431183,145.041870 182.824081,147.066162 
	C182.482346,148.205536 181.236130,148.190811 180.305099,147.937714 
	C178.466171,147.437820 178.461868,146.377899 180.117508,145.059937 
z"/>
<path fill="#E6E6E6" opacity="1.000000" stroke="none" 
	d="
M213.880096,147.866821 
	C212.259369,148.027390 210.755966,148.231171 210.805420,146.335800 
	C210.836105,145.159668 211.889771,144.863586 212.927521,144.995605 
	C214.738312,145.225983 215.760956,145.894302 213.880096,147.866821 
z"/>
<path fill="#E6E6E6" opacity="1.000000" stroke="none" 
	d="
M250.533173,147.867233 
	C250.143906,147.157883 250.102676,146.501526 250.125427,145.515167 
	C251.637497,145.184662 253.804214,144.025101 254.053955,146.405319 
	C254.280121,148.560852 252.239441,147.977936 250.533173,147.867233 
z"/>
</svg>